<?xml version="1.0" standalone="no"?>
<!DOCTYPE svg PUBLIC "-//W3C//DTD SVG 20010904//EN"
        "http://www.w3.org/TR/2001/REC-SVG-20010904/DTD/svg10.dtd">
<svg version="1.0" xmlns="http://www.w3.org/2000/svg"
     width="820.000000pt" height="782.000000pt" viewBox="0 0 820.000000 782.000000"
     preserveAspectRatio="xMidYMid meet">

    <g transform="translate(0.000000,782.000000) scale(0.100000,-0.100000)"
       fill="#000000" stroke="none">
        <path d="M6325 7659 c-449 -60 -819 -388 -935 -829 -28 -107 -38 -335 -20
-448 35 -219 138 -425 293 -589 167 -176 393 -295 629 -333 113 -18 341 -8
448 20 577 152 933 721 814 1300 -90 437 -428 773 -869 865 -98 20 -266 27
-360 14z" fill="red"/>
        <path d="M3644 7466 c-63 -29 -114 -79 -145 -142 -22 -45 -24 -65 -29 -234
l-5 -184 -115 -22 c-459 -87 -859 -295 -1201 -622 -402 -386 -631 -830 -721
-1397 -18 -118 -21 -196 -28 -855 -4 -399 -10 -736 -13 -750 -4 -14 -16 -79
-27 -145 -53 -300 -180 -638 -313 -840 -99 -148 -244 -322 -390 -467 -88 -88
-144 -152 -157 -180 -17 -38 -20 -66 -20 -233 0 -104 5 -207 11 -228 14 -51
71 -112 122 -132 38 -14 342 -15 3194 -13 l3151 3 44 30 c28 20 52 49 71 84
27 54 27 57 27 240 0 103 -5 203 -11 225 -8 30 -49 78 -181 215 -246 253 -402
457 -487 636 -93 196 -172 443 -211 660 -11 66 -23 131 -27 145 -3 14 -9 347
-13 740 -6 588 -11 733 -24 814 -9 55 -18 101 -20 103 -2 2 -45 15 -97 29
-110 31 -210 69 -318 124 l-79 39 19 -67 c11 -37 29 -116 41 -177 20 -104 22
-148 29 -825 3 -405 11 -748 17 -790 56 -396 136 -674 291 -1003 82 -173 275
-445 443 -624 51 -54 106 -113 122 -130 l30 -33 -2839 0 -2839 0 70 72 c214
221 414 490 513 686 147 294 242 609 303 1004 6 45 13 354 18 798 6 582 10
743 23 815 108 635 497 1164 1065 1449 262 132 548 198 857 198 360 0 697 -92
990 -272 36 -22 67 -40 69 -40 2 0 -2 24 -10 53 -20 73 -44 286 -44 388 l0 86
-72 33 c-156 69 -399 145 -548 170 -36 6 -77 13 -92 16 l-28 6 0 171 c0 148
-3 178 -20 214 -31 70 -79 121 -143 153 -80 40 -176 42 -253 6z"/>
        <path d="M2714 4360 c-68 -16 -132 -70 -159 -132 -39 -95 -8 -213 73 -275 193
-147 455 67 347 284 -30 60 -78 100 -143 119 -49 15 -70 16 -118 4z"/>
        <path d="M4801 4359 c-164 -50 -225 -247 -114 -370 53 -59 106 -83 178 -83 68
1 124 24 166 71 133 143 48 367 -147 387 -27 3 -64 1 -83 -5z"/>
        <path d="M3558 4013 c-15 -2 -41 -20 -59 -40 -29 -34 -31 -40 -27 -102 7 -121
80 -230 193 -289 44 -24 61 -27 150 -27 90 0 105 3 154 28 64 34 132 102 160
161 25 51 42 139 34 179 -7 37 -54 83 -94 91 -34 6 -466 6 -511 -1z"/>
        <path d="M3210 757 c0 -45 43 -150 92 -223 84 -126 220 -217 373 -249 88 -18
142 -19 228 0 213 45 375 190 447 401 36 105 101 94 -560 94 l-580 0 0 -23z"/>
    </g>
</svg>
