<?xml version="1.0" standalone="no"?>
<!DOCTYPE svg PUBLIC "-//W3C//DTD SVG 20010904//EN"
        "http://www.w3.org/TR/2001/REC-SVG-20010904/DTD/svg10.dtd">
<svg version="1.0" xmlns="http://www.w3.org/2000/svg"
     width="880.000000pt" height="722.000000pt" viewBox="0 0 880.000000 722.000000"
     preserveAspectRatio="xMidYMid meet">

    <g transform="translate(0.000000,722.000000) scale(0.100000,-0.100000)"
       fill="#000000" stroke="none"> <!-- 기본 색상을 검은색으로 변경 -->
        <path d="M7155 7049 c-449 -60 -819 -388 -935 -829 -28 -107 -38 -335 -20
-448 35 -219 138 -425 293 -589 167 -176 393 -295 629 -333 113 -18 341 -8
448 20 577 152 933 721 814 1300 -90 437 -428 773 -869 865 -98 20 -266 27
-360 14z" fill="#FF0000"/> <!-- 오른쪽 위의 동그라미를 빨간색으로 변경 -->
        <path d="M2690 6906 c-91 -17 -132 -32 -235 -84 -74 -38 -107 -62 -185 -141
-128 -130 -189 -237 -228 -404 -16 -66 -17 -194 -17 -1452 0 -1512 -3 -1433
58 -1585 83 -204 253 -374 457 -457 135 -54 107 -53 1508 -53 l1297 -1 325
-435 c179 -240 340 -449 358 -465 37 -33 85 -38 131 -15 55 29 56 34 59 492
l3 422 132 5 c148 5 215 20 327 73 253 119 428 364 460 642 5 48 10 349 10
675 l0 587 -120 0 -120 0 0 -627 c0 -518 -3 -638 -15 -683 -47 -179 -194 -342
-359 -400 -78 -28 -175 -39 -337 -40 -123 0 -139 -2 -163 -21 -50 -39 -51 -46
-56 -363 l-5 -300 -248 331 c-136 182 -256 335 -265 340 -9 4 -627 10 -1372
13 l-1355 5 -78 28 c-192 68 -337 227 -382 420 -14 59 -15 230 -13 1439 l3
1373 23 65 c63 177 218 323 397 377 56 17 161 18 1758 21 l1697 2 0 115 0 115
-1692 -1 c-1273 -1 -1709 -4 -1758 -13z"/>
        <path d="M825 5275 c-255 -48 -457 -201 -575 -437 -91 -181 -85 -79 -85 -1528
0 -1177 1 -1281 17 -1350 44 -187 177 -380 338 -490 54 -36 160 -87 230 -109
45 -14 197 -31 278 -31 l62 0 1 -407 c0 -289 4 -418 12 -443 17 -49 71 -83
120 -77 22 3 49 15 60 26 12 11 171 218 352 460 l330 440 1145 0 c764 1 1175
5 1235 12 162 20 295 79 419 186 94 81 157 162 207 268 64 132 72 176 77 405
4 224 -1 252 -55 281 -56 30 -130 9 -157 -45 -12 -24 -16 -74 -19 -216 -3 -159
-7 -194 -26 -250 -65 -189 -213 -330 -400 -382 -62 -17 -138 -18 -1276 -19
-910 0 -1219 -3 -1245 -12 -30 -10 -73 -62 -285 -344 l-250 -333 -5 303 c-7 403
11 379 -285 388 -169 5 -209 9 -259 27 -184 67 -342 246 -376 427 -8 43 -10 422
-8 1320 l3 1260 22 59 c62 164 192 297 345 354 91 34 201 42 581 42 393 0 391
0 423 61 19 37 18 74 -3 110 -35 58 -42 59 -480 58 -285 -1 -418 -5 -468 -14z"/>
        <path d="M3484 5170 c-68 -16 -132 -70 -159 -132 -39 -95 -8 -213 73 -275 193
-147 455 67 347 284 -30 60 -78 100 -143 119 -49 15 -70 16 -118 4z"/>
        <path d="M5571 5169 c-164 -50 -225 -247 -114 -370 53 -59 106 -83 178 -83 68
1 124 24 166 71 133 143 48 367 -147 387 -27 3 -64 1 -83 -5z"/>
        <path d="M4328 4823 c-15 -2 -41 -20 -59 -40 -29 -34 -31 -40 -27 -102 7 -121
80 -230 193 -289 44 -24 61 -27 150 -27 90 0 105 3 154 28 64 34 132 102 160
161 25 51 42 139 34 179 -7 37 -54 83 -94 91 -34 6 -466 6 -511 -1z"/>
    </g>
</svg>
