<?xml version="1.0" standalone="no"?>
<!DOCTYPE svg PUBLIC "-//W3C//DTD SVG 20010904//EN"
 "http://www.w3.org/TR/2001/REC-SVG-20010904/DTD/svg10.dtd">
<svg version="1.0" xmlns="http://www.w3.org/2000/svg"
 width="880.000000pt" height="819.000000pt" viewBox="0 0 880.000000 819.000000"
 preserveAspectRatio="xMidYMid meet">

<g transform="translate(0.000000,819.000000) scale(0.100000,-0.100000)"
fill="#000000" stroke="none">
<path d="M3762 7977 c-58 -22 -135 -90 -162 -143 -24 -46 -25 -60 -28 -236 -3
-165 -5 -188 -20 -192 -9 -3 -57 -12 -107 -21 -348 -64 -707 -222 -994 -439
-441 -335 -769 -835 -891 -1361 -59 -252 -62 -295 -70 -1075 -4 -399 -10 -736
-13 -750 -4 -14 -16 -79 -27 -145 -53 -300 -180 -638 -313 -840 -99 -148 -244
-322 -390 -467 -88 -88 -144 -152 -157 -180 -17 -38 -20 -66 -20 -233 0 -104
5 -207 11 -228 14 -51 71 -112 122 -132 38 -14 342 -15 3194 -13 l3151 3 44
30 c28 20 52 49 71 84 27 54 27 57 27 240 0 103 -5 203 -11 225 -8 30 -49 78
-181 215 -246 253 -402 457 -487 636 -93 196 -172 443 -211 660 -11 66 -23
131 -27 145 -3 14 -9 351 -13 750 -7 654 -10 737 -28 850 -28 173 -55 286
-100 420 -132 389 -320 689 -605 967 -301 292 -638 485 -1047 598 -101 27
-279 65 -312 65 -3 0 -8 82 -10 183 -4 206 -10 227 -79 302 -62 67 -108 88
-204 92 -47 1 -93 -2 -113 -10z m428 -972 c251 -42 483 -128 699 -259 142 -86
244 -168 371 -296 252 -254 429 -574 510 -925 46 -194 50 -281 50 -965 0 -665
4 -757 45 -990 66 -385 224 -806 393 -1050 132 -190 228 -307 376 -457 l101
-103 -2855 0 -2855 0 96 97 c151 154 252 277 381 463 169 244 327 665 393
1050 41 233 45 325 45 990 0 684 4 771 50 965 81 350 255 666 510 925 209 213
430 355 725 466 137 51 283 83 495 108 73 9 379 -4 470 -19z"/>
<path d="M2911 5258 c-111 -19 -192 -135 -171 -245 32 -175 235 -243 361 -120
49 47 69 91 69 152 0 138 -121 237 -259 213z"/>
<path d="M4835 5246 c-38 -16 -90 -68 -111 -108 -18 -35 -21 -129 -5 -170 5
-15 26 -45 46 -67 124 -137 353 -62 372 121 10 94 -35 176 -118 219 -45 22
-138 25 -184 5z"/>
<path d="M3640 4893 c-31 -35 -32 -40 -27 -99 8 -107 80 -213 178 -266 38 -19
59 -23 144 -23 86 0 107 3 147 24 156 80 239 304 141 381 -24 19 -40 20 -288
20 l-263 0 -32 -37z"/>
<path d="M3300 1257 c0 -45 43 -150 92 -223 84 -126 220 -217 373 -249 88 -18
142 -19 228 0 213 45 375 190 447 401 36 105 101 94 -560 94 l-580 0 0 -23z"/>
</g>
</svg>
